# xmcd CD database file
#
# Track frame offsets:
#	150
#	20020
#	39620
#	61072
#	79382
#	101205
#
# Disc length: 1644 seconds
#
# Revision: 0
# Processed by: cddbd v1.5.1PL0 Copyright (c) Steve Scherf et al.
# Submitted via: CDex 1.50
#
DISCID=4b066a06
DTITLE=TOBACCO　JUICE - カウボーイ
DYEAR=2004
DGENRE=Rock
TTITLE0=カウボーイ
TTITLE1=ココロとカラダ、日曜日
TTITLE2=ＬＯＷ
TTITLE3=レストラン
TTITLE4=夢の話をしましょうか
TTITLE5=ＴＥＸＡＳ
EXTD=YEAR: 2004/6/2
EXTT0=
EXTT1=
EXTT2=
EXTT3=
EXTT4=
EXTT5=
PLAYORDER=
